<?xml version="1.0" ?><svg style="enable-background:new 0 0 48 48;" version="1.1" viewBox="0 0 48 48" xml:space="preserve" xmlns="http://www.w3.org/2000/svg" xmlns:xlink="http://www.w3.org/1999/xlink"><g id="Icons"><path d="M17.65453,26.37666l-5.24862,1.39106c-3.16253,0.84097-5.66175,2.85456-6.73961,5.42486   l-1.5635,3.75476c0,0,17.41166,6.51456,36.32758,0.02369l-1.5635-3.74291c-1.07787-2.58214-3.57709-4.58389-6.73961-5.42486   l-5.44855-1.44505" style="fill:#1D97FF;"/><path d="M20.62112,34.56162v2.74075l-0.92436-0.82969v3.3079c0,0,3.73101,0.06938,4.57133,0v-2.90738   l-0.4772,0.4772v-2.8535C23.79089,34.49691,22.21033,35.30545,20.62112,34.56162z" style="fill:#464747;"/><path d="M27.83055,26.86364c0,0-0.11284,4.09518-4.13799,6.80121v3.68961l3.30021-3.71895l1.9491,0.93721   c0,0,1.9497-3.89095-0.31623-7.48242L27.83055,26.86364z" style="fill:#F4F4F4;"/><path d="M16.52935,26.86364c0,0,0.11284,4.09518,4.13799,6.80121v3.68961l-3.30022-3.71895l-1.9491,0.93721   c0,0-1.9497-3.89095,0.31623-7.48242L16.52935,26.86364z" style="fill:#F4F4F4;"/><path d="M17.65453,26.37666l-1.18992,0.3336c0,0,0.31702,5.28634,4.1565,7.0841v0.70255h3.07144v-0.7429   c0,0,3.78505-1.72551,4.13799-6.89038l-1.15182-0.50543c0,0-2.20523,3.35729-4.52189,4.56237   C22.15684,30.92058,18.64574,28.25591,17.65453,26.37666z" style="fill:#DDBEA8;"/><path d="M15.75755,20.61329c0,0-0.02698,5.74492,6.39929,10.30728c0,0,6.02307-3.79773,6.46881-10.33718   c0,0-1.1076,1.144-3.24983,0.30258c-2.14223-0.84142-2.6228-0.56097-3.11515-0.18951c0,0-0.61113-1.16189-2.97059,0.03506   S15.75755,20.61329,15.75755,20.61329z" style="fill:#464747;"/><path d="M16.49657,12.21627c0,0,0.22461,2.84289-0.48791,4.54422l-1.3207-0.7073   c0,0-1.23962,0.83747-1.04712,2.19192c0.1925,1.35444,0.88979,2.3206,2.09424,2.31609c0,0,0.46563,1.26452,2.0117,0.76147   c1.54607-0.50305,3.37692-1.64282,4.4452-0.68971c0,0,1.26196-0.71975,3.03425,0.17989   c1.77229,0.89963,3.04005,0.23069,3.39943-0.22944c0,0,1.58574,0.07898,2.03805-1.30122   c0.45231-1.3802-0.13313-2.70101-0.96008-3.1964l-1.23259,0.77171c0,0-1.05915-3.19353-0.52541-4.64121   c0,0-2.64679-1.45985-5.72483,0C22.22079,12.21627,19.23203,10.5036,16.49657,12.21627z" style="fill:#F9D9C0;"/><path d="M15.97116,16.85749c0,0,0.90739-2.19158,0.52541-4.64121c0,0,2.05094-1.59921,5.69403-0.119   c0,0,2.22511-1.2422,5.65191,0.119c0,0-0.34966,1.76947,0.53416,4.58594l1.32694-0.71644c0,0,1.04872-3.42408,0.39881-6.09758   s-2.32446-4.77781-7.66872-4.64882s-6.01459,0.61412-7.68085,3.58418s-0.0649,6.94323-0.0649,6.94323L15.97116,16.85749z" style="fill:#464747;"/><path d="   M28.64139,20.56119c0.93039,0.165,1.90485-0.60751,2.17656-1.72541c0.2716-1.1179-0.26246-2.58498-1.19287-2.75" style="fill:none;stroke:#30302F;stroke-width:0.8;stroke-linecap:round;stroke-linejoin:round;stroke-miterlimit:10;"/><path d="   M14.8183,16.08578c-0.86691,0.16502-1.36462,1.6321-1.1115,2.75c0.25313,1.1179,1.16125,1.89041,2.02828,1.72541" style="fill:none;stroke:#30302F;stroke-width:0.8;stroke-linecap:round;stroke-linejoin:round;stroke-miterlimit:10;"/><path d="   M17.65453,26.37666l-5.24862,1.39106c-3.16253,0.84097-5.66175,2.85456-6.73961,5.42486l-1.5635,3.75476   c0,0,17.41166,6.51456,36.32758,0.02369l-1.5635-3.74291c-1.07787-2.58214-3.57709-4.58389-6.73961-5.42486l-5.44855-1.44505" style="fill:none;stroke:#30302F;stroke-width:0.8;stroke-linecap:round;stroke-linejoin:round;stroke-miterlimit:10;"/><path d="   M28.64139,20.56119c0.93039,0.165,1.90485-0.60751,2.17656-1.72541c0.2716-1.1179-0.26246-2.58498-1.19287-2.75l-1.22012,0.81589   c0,0-1.10238-3.76672-0.45934-4.68539c0,0-4.05455-1.2545-5.68674-0.09393c0,0-3.65041-1.40916-5.76231,0.09393" style="fill:none;stroke:#30302F;stroke-width:0.8;stroke-linecap:round;stroke-linejoin:round;stroke-miterlimit:10;"/><path d="   M14.8183,16.08578c-0.86691,0.16502-1.36462,1.6321-1.1115,2.75c0.25313,1.1179,1.16125,1.89041,2.02828,1.72541" style="fill:none;stroke:#30302F;stroke-width:0.8;stroke-linecap:round;stroke-linejoin:round;stroke-miterlimit:10;"/><path d="   M14.81711,16.08578l1.22012,0.81589c0,0,1.10238-3.76672,0.45934-4.68539" style="fill:none;stroke:#30302F;stroke-width:0.8;stroke-linecap:round;stroke-linejoin:round;stroke-miterlimit:10;"/><path d="   M15.73507,20.56119c0,0,1.12443,1.4974,3.42229,0.32478c2.29786-1.16078,3.1033-0.18951,3.1033-0.18951   s0.81728-0.97126,3.11515,0.18951c2.29786,1.17262,3.26557-0.32478,3.26557-0.32478s0.41219,5.28094-6.44942,10.44012" style="fill:none;stroke:#30302F;stroke-width:0.8;stroke-linecap:round;stroke-linejoin:round;stroke-miterlimit:10;"/><path d="   M15.73507,20.56119c0,0-0.40472,5.28094,6.45689,10.44012" style="fill:none;stroke:#30302F;stroke-width:0.8;stroke-linecap:round;stroke-linejoin:round;stroke-miterlimit:10;"/><line style="fill:none;stroke:#30302F;stroke-width:0.8;stroke-linecap:round;stroke-linejoin:round;stroke-miterlimit:10;" x1="21.00097" x2="23.51678" y1="22.16627" y2="22.16627"/><polyline points="   21.61536,18.78177 22.24312,19.0799 22.90252,18.78177  " style="fill:none;stroke:#30302F;stroke-width:0.8;stroke-linecap:round;stroke-linejoin:round;stroke-miterlimit:10;"/><path d="   M29.62507,16.08578c0,0,3.71983-11.34126-7.19137-10.7464" style="fill:none;stroke:#30302F;stroke-width:0.8;stroke-linecap:round;stroke-linejoin:round;stroke-miterlimit:10;"/><path d="   M14.75126,16.08578c0,0-3.6735-11.59412,7.68245-10.7464" style="fill:none;stroke:#30302F;stroke-width:0.8;stroke-linecap:round;stroke-linejoin:round;stroke-miterlimit:10;"/><path d="   M27.84316,26.667c0,0-0.15398,5.00162-4.15061,7.08702v3.7287l3.44312-4.0138l1.80619,1.10381   C28.94187,34.57272,31.05911,28.39454,27.84316,26.667z" style="fill:none;stroke:#30302F;stroke-width:0.8;stroke-linecap:round;stroke-linejoin:round;stroke-miterlimit:10;"/><path d="   M16.46461,26.71027c0,0,0.15999,4.95835,4.1565,7.04375v3.7287l-3.443-4.0138l-1.8062,1.10381   C15.37192,34.57272,13.24855,28.43781,16.46461,26.71027z" style="fill:none;stroke:#30302F;stroke-width:0.8;stroke-linecap:round;stroke-linejoin:round;stroke-miterlimit:10;"/><line style="fill:none;stroke:#30302F;stroke-width:0.8;stroke-linecap:round;stroke-linejoin:round;stroke-miterlimit:10;" x1="24.26809" x2="24.26809" y1="36.81184" y2="39.78058"/><line style="fill:none;stroke:#30302F;stroke-width:0.8;stroke-linecap:round;stroke-linejoin:round;stroke-miterlimit:10;" x1="19.69676" x2="19.69676" y1="36.4085" y2="39.78058"/><path d="   M20.62112,34.49691c0,0,1.25861,0.88077,3.07144,0" style="fill:none;stroke:#30302F;stroke-width:0.8;stroke-linecap:round;stroke-linejoin:round;stroke-miterlimit:10;"/><circle cx="26.33513" cy="38.17612" r="0.60378" style="fill:#30302F;"/><path d="   M23.29493,15.13871c0,0,1.49539-0.10829,3.64969-0.17992" style="fill:none;stroke:#30302F;stroke-width:0.8;stroke-linecap:round;stroke-linejoin:round;stroke-miterlimit:10;"/><path d="   M23.7429,16.43369c0,0,1.22428-0.26011,2.16153,0" style="fill:none;stroke:#30302F;stroke-width:0.8;stroke-linecap:round;stroke-linejoin:round;stroke-miterlimit:10;"/><path d="   M21.11492,15.13871c0,0-1.49539-0.10829-3.64969-0.17992" style="fill:none;stroke:#30302F;stroke-width:0.8;stroke-linecap:round;stroke-linejoin:round;stroke-miterlimit:10;"/><path d="   M20.66707,16.43369c0,0-1.22438-0.26011-2.16165,0" style="fill:none;stroke:#30302F;stroke-width:0.8;stroke-linecap:round;stroke-linejoin:round;stroke-miterlimit:10;"/></g></svg>